<?xml version="1.0" standalone="no"?>
<!DOCTYPE svg PUBLIC "-//W3C//DTD SVG 20010904//EN"
 "http://www.w3.org/TR/2001/REC-SVG-20010904/DTD/svg10.dtd">
<svg version="1.0" xmlns="http://www.w3.org/2000/svg"
 width="963.000000pt" height="963.000000pt" viewBox="0 0 963.000000 963.000000"
 preserveAspectRatio="xMidYMid meet">
<metadata>
Created by potrace 1.14, written by Peter Selinger 2001-2017
</metadata>
<g transform="translate(0.000000,963.000000) scale(0.100000,-0.100000)"
fill="#000000" stroke="none">
<path d="M3093 8150 c-105 -37 -194 -119 -241 -220 -22 -47 -27 -75 -35 -217
-5 -90 -7 -170 -3 -178 3 -8 15 -15 26 -15 17 0 8 -18 -59 -118 l-79 -118 -56
-13 c-182 -41 -395 -218 -487 -406 -53 -109 -70 -179 -75 -319 -3 -65 -13
-162 -23 -214 -18 -93 -18 -95 1 -100 19 -5 20 -12 13 -251 l-7 -246 66 -222
66 -223 -11 -162 c-6 -89 -19 -213 -28 -275 l-17 -114 29 -6 30 -6 -6 -331
c-4 -182 -13 -407 -21 -501 -8 -93 -13 -171 -12 -172 1 -1 28 2 61 6 33 5 61
8 62 7 1 -1 41 -372 88 -825 78 -746 85 -827 72 -855 -8 -17 -24 -61 -36 -97
l-22 -66 -107 -7 c-361 -23 -724 -63 -897 -97 -249 -50 -249 -108 0 -158 301
-60 856 -104 1820 -142 417 -17 2185 -23 2720 -10 1517 37 2435 124 2435 231
0 62 -328 120 -959 168 l-223 17 -244 539 c-135 296 -243 540 -242 541 2 1 30
17 63 36 384 211 655 575 735 987 9 44 17 62 28 62 31 0 98 49 120 88 26 47
30 128 8 171 l-15 28 76 43 c174 99 368 279 476 442 62 93 142 256 177 358 67
200 88 473 52 685 -106 616 -578 1088 -1190 1190 -130 22 -406 17 -526 -10
-65 -14 -83 -15 -102 -4 -33 17 -74 -2 -74 -34 0 -26 38 -146 52 -164 5 -6
193 -559 417 -1228 l409 -1217 -39 -35 c-22 -20 -42 -46 -45 -59 -5 -19 -13
-24 -39 -24 -28 0 -32 3 -28 20 5 19 0 20 -61 20 -59 0 -66 -2 -66 -20 0 -18
-7 -20 -55 -20 -48 0 -55 2 -55 20 0 18 -7 20 -65 20 -58 0 -65 -2 -65 -20 0
-18 -7 -20 -55 -20 -48 0 -55 2 -55 20 0 15 -7 20 -25 20 l-24 0 24 36 c47 70
25 173 -44 209 -25 13 -80 15 -342 15 -295 0 -313 -1 -344 -20 -67 -41 -84
-142 -36 -209 l22 -31 -40 0 c-34 0 -41 -3 -41 -20 0 -18 -7 -20 -55 -20 -48
0 -55 2 -55 20 0 16 -7 20 -35 20 l-34 0 24 36 c47 70 25 173 -44 209 -25 13
-80 15 -342 15 -295 0 -313 -1 -344 -20 -67 -41 -84 -142 -36 -209 l22 -31
-30 0 c-24 0 -31 -4 -31 -20 0 -18 -7 -20 -55 -20 -48 0 -55 2 -55 20 0 18 -7
20 -65 20 -58 0 -65 -2 -65 -20 0 -17 -7 -20 -45 -20 -33 0 -45 -4 -45 -15 0
-11 -11 -15 -38 -15 -43 0 -62 -14 -62 -45 0 -32 20 -45 67 -45 41 0 43 -1 43
-30 0 -52 37 -224 70 -321 110 -330 366 -634 673 -799 42 -23 77 -45 77 -48 0
-4 -103 -234 -229 -512 l-230 -505 -509 -3 -510 -2 -114 90 c-63 49 -119 95
-125 102 -8 11 -144 1440 -143 1503 0 11 12 27 29 36 l28 16 -64 339 c-35 187
-66 357 -69 379 l-6 40 256 223 256 223 29 -16 c39 -19 84 -19 123 1 17 9 98
75 180 147 l149 131 -25 25 c-23 22 -27 23 -43 10 -10 -9 -58 -50 -106 -93
-78 -68 -107 -84 -107 -57 0 5 48 50 106 101 l106 93 -20 20 -20 20 -101 -89
c-99 -87 -121 -100 -128 -79 -3 9 122 126 195 183 15 11 14 14 -4 33 l-21 20
-104 -90 c-96 -84 -129 -105 -129 -82 0 9 127 128 190 180 l25 20 -26 26 -25
26 -154 -136 c-85 -74 -161 -148 -169 -163 -13 -24 -16 -70 -9 -128 2 -16 -48
-66 -221 -218 -123 -108 -225 -195 -227 -193 -9 9 -20 87 -13 89 5 2 -27 346
-71 765 -43 419 -80 777 -80 795 0 18 4 167 9 332 5 176 5 312 0 331 -13 46
-49 96 -88 122 -18 12 -46 42 -62 65 -16 24 -35 52 -44 64 -14 20 -13 28 26
116 l41 95 79 6 c177 12 308 129 340 304 6 31 8 66 5 79 -6 21 -3 24 23 24 40
0 60 9 72 31 15 29 -7 62 -113 169 -98 100 -165 144 -267 174 -73 21 -192 20
-258 -4z m-238 -4532 c32 -102 15 -95 188 -77 59 6 110 9 113 7 10 -11 322
-1473 314 -1476 -5 -2 -18 -32 -30 -66 -19 -57 -24 -64 -52 -70 -51 -10 -275
-7 -351 6 -69 11 -77 15 -190 102 l-119 91 6 410 c3 226 9 577 13 781 l6 371
23 -5 c16 -3 26 1 30 13 10 25 20 8 49 -87z m3089 -770 c152 -15 330 -2 474
35 l93 23 14 -27 c38 -73 185 -393 182 -396 -2 -2 -287 -2 -634 -1 l-631 3 70
150 c38 83 82 178 98 211 l28 62 90 -24 c50 -12 147 -29 216 -36z m927 -707
c60 -129 108 -235 106 -236 -1 -1 -69 2 -152 6 -271 14 -763 29 -1197 36 -236
3 -428 9 -428 12 0 3 43 99 97 214 l97 207 684 -2 683 -3 110 -234z"/>
<path d="M5955 6441 c-40 -17 -92 -86 -105 -141 -27 -112 6 -237 109 -415 102
-177 125 -255 125 -420 0 -171 -44 -302 -139 -418 -42 -52 -46 -60 -32 -74 22
-22 48 -4 102 72 85 118 125 256 125 423 0 167 -30 267 -135 452 -75 133 -105
218 -105 301 0 67 17 116 51 148 19 18 31 20 66 15 38 -6 43 -4 43 14 0 11 -6
25 -13 31 -20 16 -68 22 -92 12z"/>
<path d="M5490 5928 c-63 -32 -94 -92 -86 -166 8 -70 33 -118 117 -224 98
-122 124 -182 123 -283 -1 -117 -29 -181 -116 -268 -56 -56 -67 -72 -57 -83
18 -22 31 -17 92 37 41 36 67 71 94 127 37 74 38 79 38 187 0 104 -2 114 -32
175 -18 36 -62 101 -99 145 -79 96 -103 144 -104 207 0 39 5 52 31 78 28 27
38 31 78 28 38 -2 46 0 49 16 9 43 -63 57 -128 24z"/>
<path d="M6405 5568 c-74 -26 -110 -95 -81 -159 19 -42 36 -62 106 -119 72
-59 87 -76 111 -128 37 -78 -1 -169 -90 -222 -23 -14 -52 -33 -64 -42 -21 -16
-21 -17 -4 -35 17 -17 19 -17 61 5 100 54 165 146 166 235 0 78 -22 114 -135
222 -82 78 -105 106 -105 127 0 41 41 68 106 68 48 0 54 2 54 20 0 35 -64 49
-125 28z"/>
</g>
</svg>
